<svg width="49" height="49" viewBox="0 0 49 49" fill="none" xmlns="http://www.w3.org/2000/svg">
  <circle cx="24.5" cy="24.5" r="24.5" fill="#FBF4EA"/>
  <path d="M24.2 13.7c-4.1 0-7.3 3.2-7.3 7.2 0 3.1 1.9 5.8 4.7 6.8.4.1.7.4.8.8l.5 2.5h2.6l.5-2.5c.1-.4.4-.7.8-.8 2.8-1 4.7-3.7 4.7-6.8 0-4-3.2-7.2-7.3-7.2Z" stroke="#B08A3F" stroke-width="1.9" stroke-linejoin="round"/>
  <path d="M22.9 31h2.7v2.2c0 1.6-1.2 2.8-2.8 2.8h-1.6" stroke="#B08A3F" stroke-width="1.9" stroke-linecap="round" stroke-linejoin="round"/>
  <path d="M20.6 20.5c.2-1.8 1.6-3.2 3.3-3.5" stroke="#B08A3F" stroke-width="1.9" stroke-linecap="round"/>
</svg>
